<svg width="137" height="71" viewBox="0 0 137 71" fill="none" xmlns="http://www.w3.org/2000/svg">
<path d="M42.4196 53.0485C41.1432 49.3929 38.5165 47.5647 34.5395 47.5639H33.2847V70.1132H34.5395C37.6134 70.1132 39.8822 68.8649 41.346 66.3682C42.5792 64.2372 43.1958 61.5256 43.1958 58.2334C43.1929 56.2751 42.9341 54.5468 42.4196 53.0485Z" fill="white"/>
<path d="M20.8837 53.3189C22.1616 56.9745 24.7879 58.8023 28.7627 58.8023H30.0175V36.2531H28.7627C25.6888 36.2531 23.42 37.5014 21.9563 39.9981C20.7267 42.1283 20.1116 44.8399 20.1108 48.1328C20.1108 50.0889 20.3685 51.8175 20.8837 53.3189Z" fill="white"/>
<path d="M-0.00012207 0.240417H16.6977V6.21254H5.99395V9.1986H14.8863V14.8653H5.99395V17.8853H16.6977V23.8574H-0.00012207V0.240417Z" fill="white"/>
<path d="M25.095 0.212097H46.7L35.8975 24.3381L25.095 0.212097ZM35.8975 21.3521L44.8227 1.4676H27.0052L35.8975 21.3521Z" fill="white"/>
<path d="M55.3289 0.240417H72.0266V6.21254H61.3229V9.1986H70.2153V14.8653H61.3229V17.8853H72.0266V23.8574H55.3289V0.240417Z" fill="white"/>
<path d="M82.3022 23.8235V0.212097H83.5866L99.5928 16.2622V0.212097H100.811V23.8291L82.3022 23.8235Z" fill="white"/>
<path d="M118.3 23.8574V6.21254H109.638V0.240417H128.147V6.21254H119.485V23.8574H118.3Z" fill="white"/>
<path d="M9.84618 40.9595C11.2953 40.9595 12.448 41.1857 13.3043 41.6381C14.2881 42.1326 15.1145 42.9062 15.6862 43.868C16.258 44.8297 16.5514 45.9397 16.5319 47.0673C16.5379 48.1543 16.2407 49.2202 15.6756 50.1382C15.1013 51.0797 14.2943 51.8468 13.3372 52.3608C14.5256 52.7926 15.5668 53.5706 16.3343 54.6003C17.1309 55.6186 17.5614 56.8893 17.5529 58.1972C17.5613 59.3401 17.2589 60.4627 16.6801 61.4377C16.1139 62.4061 15.314 63.2069 14.3582 63.7621C13.8508 64.0428 13.3075 64.2485 12.7444 64.3729C12.1516 64.5086 11.3612 64.5765 10.3731 64.5765H0.229309V40.9595H9.84618Z" fill="white"/>
<path d="M48.462 62.8629C46.7384 61.3134 45.8876 58.989 45.9096 55.8898H51.2779C51.256 57.1792 51.6292 58.1633 52.3977 58.8419C53.1662 59.5206 54.242 59.8599 55.6253 59.8599C56.767 59.8599 57.6672 59.6676 58.3259 59.2831C58.9846 58.8985 59.3139 58.3103 59.3139 57.5186C59.3139 56.8625 58.9791 56.3875 58.3094 56.0934C57.6699 55.8088 57.0016 55.5982 56.3169 55.4657C55.6582 55.3412 55.252 55.2658 55.0983 55.2394C53.6062 54.9551 52.1407 54.5388 50.718 53.9952C49.5236 53.5377 48.4594 52.7794 47.6222 51.7896C46.7878 50.7943 46.3707 49.4822 46.3707 47.8534C46.3707 46.2247 46.7878 44.8391 47.6222 43.6967C48.4565 42.5543 49.5708 41.7004 50.965 41.1348C52.4199 40.5578 53.9676 40.27 55.5265 40.2865C57.5245 40.2865 59.2535 40.6711 60.7136 41.4402C62.1737 42.2093 63.321 43.3744 64.1553 44.9353C64.5425 45.5954 64.7999 46.3275 64.9128 47.09C64.9993 47.7593 65.0433 48.4337 65.0445 49.109H59.6762C59.6762 47.8874 59.3578 46.9882 58.7211 46.4113C58.0844 45.8345 57.0963 45.546 55.757 45.546C54.6811 45.546 53.8468 45.7383 53.254 46.1229C52.6612 46.5075 52.3648 47.0278 52.3648 47.6838C52.3648 48.4077 52.76 48.9393 53.5504 49.2786C54.5214 49.674 55.5243 49.9805 56.5474 50.1948C58.5235 50.602 60.0659 50.9922 61.1747 51.3655C62.2925 51.7451 63.2888 52.4314 64.0565 53.3505C64.8689 54.3006 65.2751 55.6353 65.2751 57.3546C65.2751 58.9833 64.8359 60.3859 63.9577 61.5622C63.0794 62.7385 61.9212 63.6377 60.4831 64.2598C59.0062 64.8898 57.4213 65.2071 55.8229 65.193C52.6392 65.1892 50.1856 64.4125 48.462 62.8629Z" fill="white"/>
<path d="M78.7782 64.5765V46.9316H70.1165V40.9595H88.6256V46.9316H79.9639V64.5765H78.7782Z" fill="white"/>
<path d="M94.8503 40.9595H111.548V46.9316H100.844V49.9176H109.737V55.5844H100.844V58.6044H111.548V64.5765H94.8503V40.9595Z" fill="white"/>
<path d="M136.281 64.5765H118.661V40.9595H127.586C129.496 40.9595 131.055 41.3101 132.263 42.0114C133.417 42.658 134.374 43.621 135.029 44.7938C135.691 45.9805 136.032 47.3278 136.017 48.6961C136.033 50.414 135.475 52.0853 134.436 53.4297C133.441 54.7801 132.04 55.7526 130.451 56.1952L136.281 64.5765ZM119.879 43.0294V55.2111H128.344L119.879 43.0294ZM119.879 63.321H133.975L129.167 56.4327L128.146 56.4666H119.879V63.321ZM120.736 42.215L129.694 55.1093C131.132 54.813 132.425 54.009 133.35 52.8358C134.3 51.6806 134.815 50.2107 134.799 48.6961C134.812 47.5021 134.504 46.3277 133.909 45.3028C133.317 44.2853 132.446 43.4708 131.406 42.9615C130.44 42.4638 129.178 42.215 127.619 42.215H120.736Z" fill="white"/>
</svg>
